<svg width="399" height="516" viewBox="0 0 399 516" fill="none" xmlns="http://www.w3.org/2000/svg">
<path d="M77.3452 271.193C75.8572 271.196 74.3967 270.801 73.1222 270.051C71.8477 269.302 70.8078 268.225 70.1152 266.94C60.2098 248.578 55.0333 228.139 55.033 207.387C55.033 205.271 55.8939 203.242 57.4264 201.746C58.9588 200.251 61.0373 199.41 63.2045 199.41C65.3718 199.41 67.4502 200.251 68.9827 201.746C70.5152 203.242 71.3761 205.271 71.3761 207.387C71.3764 225.542 75.9008 243.425 84.5591 259.493C85.215 260.708 85.5387 262.067 85.4988 263.44C85.4589 264.813 85.0568 266.152 84.3314 267.328C83.606 268.505 82.5818 269.479 81.358 270.156C80.1341 270.833 78.7519 271.19 77.3452 271.193V271.193Z" fill="#117DB0"/>
<path d="M134.745 323.772C133.377 324.594 131.795 325.022 130.172 325.009C128.549 324.995 126.947 324.542 125.538 323.697C105.41 311.638 83.5702 288.413 71.1285 268.619C69.8601 266.601 74.2556 270.77 74.7697 268.499C75.2838 266.228 72.9896 263.671 74.985 262.477C76.9805 261.284 83.1022 261.551 85.41 262.134C85.41 262.477 88.6571 266.481 89.9255 268.499C100.81 285.817 116.767 298.08 134.373 308.638C135.705 309.436 156.215 314.907 157.002 316.238C157.788 317.569 138.823 314.716 138.861 316.238C138.898 317.76 138.539 319.253 137.818 320.573C137.097 321.892 136.039 322.994 134.745 323.772Z" fill="#117DB0"/>
<path d="M294.212 271.193C292.805 271.19 291.423 270.833 290.199 270.156C288.975 269.479 287.951 268.505 287.225 267.328C286.5 266.152 286.098 264.812 286.058 263.44C286.018 262.067 286.342 260.708 286.998 259.493C295.656 243.425 300.18 225.542 300.181 207.387C300.181 205.271 301.042 203.242 302.574 201.746C304.107 200.251 306.185 199.41 308.352 199.41C310.52 199.41 312.598 200.251 314.13 201.746C315.663 203.242 316.524 205.271 316.524 207.387C316.524 228.139 311.347 248.578 301.442 266.94C300.749 268.226 299.709 269.302 298.435 270.051C297.16 270.801 295.7 271.196 294.212 271.193Z" fill="#117DB0"/>
<path d="M243.398 323.864C242.175 323.186 241.18 322.164 240.507 320.899C239.835 319.633 239.509 318.166 239.56 316.64C239.611 315.114 240.039 313.58 240.8 312.187C241.562 310.794 228.946 317.541 230.222 316.64C247.083 304.713 280.443 272.424 290.98 254.249C292.208 252.131 288.778 259.12 290.98 258.359C293.182 257.597 295.479 257.754 297.365 258.795C299.252 259.835 300.573 261.675 301.039 263.908C301.505 266.142 301.077 268.586 299.849 270.704C287.806 291.478 271.438 309.454 252.16 323.078C250.811 324.033 249.281 324.611 247.737 324.749C246.192 324.888 244.692 324.582 243.398 323.864Z" fill="#117DB0"/>
<path d="M133.321 323.592C133.083 322.24 133.418 320.814 134.294 319.452C135.171 318.09 136.558 316.839 138.322 315.819C140.086 314.799 142.167 314.045 144.364 313.631C146.562 313.216 148.8 313.154 150.864 313.451C178.158 317.363 207.653 316.806 236.806 311.826C240.203 311.246 243.609 311.517 246.276 312.579C248.942 313.641 250.65 315.408 251.024 317.491C251.397 319.573 250.407 321.801 248.269 323.684C246.131 325.567 246.276 327.531 239.625 327.531C206.303 333.223 160.032 332.013 128.84 327.531C126.656 327.218 137.306 328.356 135.883 327.337C134.459 326.318 133.573 325.023 133.321 323.592Z" fill="#117DB0"/>
<path d="M63.2045 215.363C62.1313 215.364 61.0684 215.158 60.0767 214.757C59.085 214.357 58.1839 213.769 57.425 213.028C56.6661 212.287 56.0642 211.408 55.6537 210.44C55.2433 209.472 55.0323 208.434 55.033 207.387V153.645C55.033 151.529 55.8939 149.5 57.4264 148.004C58.9588 146.508 61.0373 145.668 63.2045 145.668C65.3718 145.668 67.4502 146.508 68.9827 148.004C70.5152 149.5 71.3761 151.529 71.3761 153.645V207.387C71.3767 208.434 71.1658 209.472 70.7553 210.44C70.3449 211.408 69.743 212.287 68.9841 213.028C68.2251 213.769 67.3241 214.357 66.3324 214.757C65.3407 215.158 64.2778 215.364 63.2045 215.363V215.363Z" fill="#117DB0"/>
<path d="M308.352 215.366C307.279 215.366 306.216 215.16 305.224 214.76C304.233 214.359 303.332 213.771 302.573 213.031C301.814 212.29 301.212 211.41 300.801 210.442C300.391 209.474 300.18 208.437 300.181 207.389V135.59C300.181 133.474 301.042 131.446 302.574 129.95C304.107 128.454 306.185 127.613 308.352 127.613C310.519 127.613 312.598 128.454 314.13 129.95C315.663 131.446 316.524 133.474 316.524 135.59V207.389C316.524 208.437 316.313 209.474 315.903 210.442C315.493 211.41 314.891 212.29 314.132 213.031C313.373 213.771 312.472 214.359 311.48 214.76C310.488 215.16 309.426 215.366 308.352 215.366V215.366Z" fill="#117DB0"/>
<path d="M308.352 143.566C307.279 143.567 306.216 143.361 305.224 142.96C304.232 142.56 303.331 141.972 302.572 141.231C301.813 140.49 301.212 139.611 300.801 138.643C300.391 137.675 300.18 136.637 300.18 135.589C300.18 103.86 287.268 73.4301 264.284 50.994C241.3 28.558 210.127 15.9535 177.623 15.9535C145.118 15.9535 113.945 28.558 90.9614 50.994C67.9774 73.4301 55.0651 103.86 55.0651 135.589C55.0651 137.705 54.2041 139.734 52.6717 141.23C51.1392 142.726 49.0607 143.566 46.8935 143.566C44.7263 143.566 42.6478 142.726 41.1153 141.23C39.5829 139.734 38.7219 137.705 38.7219 135.589C38.7219 99.6288 53.3561 65.1411 79.405 39.7132C105.454 14.2853 140.784 0 177.623 0C214.461 0 249.791 14.2853 275.84 39.7132C301.889 65.1411 316.524 99.6288 316.524 135.589C316.524 136.637 316.313 137.675 315.903 138.643C315.492 139.611 314.89 140.49 314.131 141.231C313.373 141.972 312.472 142.56 311.48 142.96C310.488 143.361 309.425 143.567 308.352 143.566V143.566Z" fill="#117DB0"/>
<path d="M308.36 175.472C307.104 175.474 305.865 175.194 304.738 174.652C303.612 174.11 302.628 173.322 301.864 172.349C265.587 126.124 247.855 131.99 209 144.906C156.931 164.27 100.411 169.291 45.6168 159.418C44.5573 159.254 43.5412 158.888 42.6265 158.341C41.7119 157.794 40.9165 157.077 40.2859 156.23C39.6553 155.383 39.2018 154.423 38.9513 153.405C38.7007 152.387 38.6581 151.33 38.8258 150.296C38.9934 149.262 39.3681 148.27 39.9285 147.377C40.4888 146.484 41.2239 145.708 42.0916 145.092C42.9593 144.477 43.9428 144.034 44.9858 143.789C46.0288 143.545 47.1109 143.503 48.1704 143.667C100.351 153.02 154.159 148.224 203.741 129.801C244.52 116.255 271.444 107.335 314.84 162.643C315.768 163.824 316.339 165.235 316.488 166.716C316.637 168.197 316.359 169.689 315.685 171.024C315.011 172.358 313.967 173.482 312.673 174.269C311.379 175.055 309.885 175.472 308.36 175.473V175.472Z" fill="#117DB0"/>
<path d="M46.8935 159.52C45.8202 159.521 44.7573 159.315 43.7656 158.914C42.7739 158.514 41.8729 157.926 41.1139 157.185C40.355 156.445 39.7531 155.565 39.3427 154.597C38.9322 153.629 38.7213 152.591 38.7219 151.544V135.59C38.7219 133.474 39.5829 131.446 41.1153 129.95C42.6478 128.454 44.7263 127.613 46.8935 127.613C49.0607 127.613 51.1392 128.454 52.6717 129.95C54.2041 131.446 55.0651 133.474 55.0651 135.59V151.544C55.0657 152.591 54.8548 153.629 54.4443 154.597C54.0339 155.565 53.432 156.445 52.6731 157.185C51.9141 157.926 51.0131 158.514 50.0214 158.914C49.0297 159.315 47.9668 159.521 46.8935 159.52V159.52Z" fill="#117DB0"/>
<path d="M251.151 135.682C249.572 135.682 248.028 135.235 246.703 134.397C245.379 133.558 244.332 132.362 243.689 130.955C243.045 129.548 242.834 127.989 243.079 126.466C243.324 124.944 244.016 123.523 245.07 122.377L289.12 74.4225C290.572 72.8632 292.597 71.9279 294.753 71.8209C296.908 71.7138 299.02 72.4438 300.626 73.8513C302.232 75.2589 303.203 77.2297 303.326 79.3334C303.449 81.437 302.714 83.5027 301.282 85.0793L257.232 133.033C256.466 133.867 255.529 134.534 254.481 134.991C253.433 135.447 252.298 135.683 251.151 135.682V135.682Z" fill="#117DB0"/>
<path d="M138.568 318.688L22.2146 374.328C13.5288 378.482 8 387.254 8 396.882V498.001C8 503.524 12.4771 508.001 18 508.001H381C386.523 508.001 391 503.524 391 498.001V397.778C391 387.693 384.94 378.595 375.634 374.709L241.487 318.688" stroke="#117DB0" stroke-width="15"/>
<path d="M157.107 324.086L186.831 375.781M186.831 375.781L217.529 324.086M186.831 375.781L161.632 404.435C158.905 407.537 158.364 411.995 160.272 415.658L185.958 464.98C186.329 465.692 187.345 465.698 187.726 464.991L214.18 415.807C216.187 412.076 215.625 407.484 212.776 404.347L186.831 375.781Z" stroke="#117DB0" stroke-width="12"/>
<path d="M299.715 479.639V456.381" stroke="#117DB0" stroke-width="15"/>
<path d="M282.953 479.637V463.98" stroke="#117DB0" stroke-width="15"/>
<path d="M316.477 479.639V451.957" stroke="#117DB0" stroke-width="15"/>
<path d="M333.238 479.696V447.078" stroke="#117DB0" stroke-width="15"/>
<path d="M350 479.695V439.477" stroke="#117DB0" stroke-width="15"/>
<path d="M260 476.098V466.004L271.174 457.724L279.537 446.937H301.074L317.951 431.906L330.244 427.313L350 420.771M350 420.771L333.8 416M350 420.771L343.88 434.191" stroke="#117DB0" stroke-width="12"/>
</svg>
