<svg width="383" height="511" viewBox="0 0 383 511" fill="none" xmlns="http://www.w3.org/2000/svg">
<path d="M85.6053 271.461C84.1522 271.464 82.7261 271.069 81.4816 270.318C80.237 269.568 79.2215 268.491 78.5452 267.204C68.8726 248.824 63.8177 228.364 63.8174 207.592C63.8174 205.474 64.6581 203.443 66.1545 201.946C67.651 200.449 69.6806 199.607 71.7969 199.607C73.9132 199.607 75.9429 200.449 77.4393 201.946C78.9358 203.443 79.7765 205.474 79.7765 207.592C79.7768 225.765 84.1949 243.666 92.6497 259.749C93.2902 260.965 93.6063 262.326 93.5673 263.7C93.5284 265.074 93.1357 266.415 92.4274 267.593C91.719 268.77 90.7189 269.745 89.5238 270.423C88.3287 271.101 86.979 271.458 85.6053 271.461V271.461Z" fill="#117DB0"/>
<path d="M297.375 271.461C296.002 271.458 294.652 271.1 293.457 270.423C292.262 269.745 291.262 268.77 290.553 267.592C289.845 266.415 289.452 265.074 289.413 263.7C289.374 262.326 289.69 260.965 290.331 259.749C298.786 243.665 303.204 225.765 303.204 207.592C303.204 205.474 304.045 203.443 305.541 201.946C307.038 200.449 309.067 199.607 311.184 199.607C313.3 199.607 315.33 200.449 316.826 201.946C318.323 203.443 319.163 205.474 319.163 207.592C319.163 228.364 314.108 248.824 304.435 267.204C303.759 268.491 302.744 269.568 301.499 270.318C300.255 271.069 298.828 271.464 297.375 271.461Z" fill="#117DB0"/>
<path d="M71.7969 215.577C70.7489 215.577 69.711 215.371 68.7426 214.97C67.7742 214.569 66.8943 213.981 66.1532 213.239C65.4121 212.498 64.8244 211.617 64.4236 210.648C64.0228 209.679 63.8168 208.641 63.8174 207.592V153.797C63.8174 151.679 64.6581 149.649 66.1545 148.151C67.651 146.654 69.6806 145.812 71.7969 145.812C73.9132 145.812 75.9429 146.654 77.4393 148.151C78.9358 149.649 79.7765 151.679 79.7765 153.797V207.592C79.7771 208.641 79.5711 209.679 79.1703 210.648C78.7695 211.617 78.1818 212.498 77.4407 213.239C76.6996 213.981 75.8197 214.569 74.8513 214.97C73.8829 215.371 72.845 215.577 71.7969 215.577V215.577Z" fill="#117DB0"/>
<path d="M311.184 215.577C310.136 215.578 309.098 215.372 308.129 214.971C307.161 214.569 306.281 213.981 305.54 213.24C304.799 212.498 304.211 211.618 303.81 210.649C303.41 209.68 303.204 208.641 303.204 207.592V135.723C303.204 133.605 304.045 131.574 305.541 130.077C307.038 128.58 309.067 127.738 311.184 127.738C313.3 127.738 315.33 128.58 316.826 130.077C318.323 131.574 319.163 133.605 319.163 135.723V207.592C319.164 208.641 318.958 209.68 318.557 210.649C318.156 211.618 317.568 212.498 316.827 213.24C316.086 213.981 315.206 214.569 314.238 214.971C313.27 215.372 312.232 215.578 311.184 215.577V215.577Z" fill="#117DB0"/>
<path d="M311.184 143.708C310.136 143.708 309.098 143.502 308.129 143.101C307.161 142.7 306.281 142.112 305.54 141.37C304.799 140.629 304.211 139.748 303.81 138.779C303.41 137.81 303.204 136.772 303.204 135.723C303.204 103.962 290.595 73.5024 268.151 51.0443C245.707 28.5861 215.267 15.9692 183.526 15.9692C151.786 15.9692 121.345 28.5861 98.9015 51.0443C76.4576 73.5024 63.8488 103.962 63.8488 135.723C63.8488 137.841 63.0081 139.871 61.5116 141.369C60.0151 142.866 57.9855 143.708 55.8692 143.708C53.7529 143.708 51.7233 142.866 50.2268 141.369C48.7304 139.871 47.8896 137.841 47.8896 135.723C47.8896 99.7269 62.1799 65.2053 87.6168 39.7523C113.054 14.2993 147.553 0 183.526 0C219.5 0 253.999 14.2993 279.436 39.7523C304.873 65.2053 319.163 99.7269 319.163 135.723C319.164 136.772 318.958 137.81 318.557 138.779C318.156 139.748 317.569 140.629 316.827 141.37C316.086 142.112 315.206 142.7 314.238 143.101C313.27 143.502 312.232 143.708 311.184 143.708V143.708Z" fill="#117DB0"/>
<path d="M311.192 175.645C309.965 175.647 308.755 175.366 307.655 174.823C306.555 174.281 305.594 173.492 304.849 172.518C269.424 126.248 252.109 132.119 214.167 145.048C163.321 164.432 108.129 169.457 54.6226 159.574C53.588 159.411 52.5958 159.044 51.7026 158.497C50.8094 157.949 50.0328 157.231 49.417 156.383C48.8012 155.535 48.3583 154.574 48.1137 153.555C47.869 152.536 47.8274 151.479 47.9911 150.444C48.1548 149.408 48.5207 148.415 49.0679 147.522C49.6151 146.628 50.3329 145.851 51.1802 145.235C52.0276 144.618 52.9879 144.175 54.0064 143.931C55.0249 143.686 56.0816 143.644 57.1162 143.808C108.07 153.17 160.614 148.369 209.032 129.928C248.851 116.368 275.143 107.44 317.52 162.802C318.425 163.985 318.983 165.397 319.128 166.879C319.274 168.362 319.003 169.855 318.344 171.191C317.686 172.527 316.667 173.653 315.403 174.44C314.139 175.227 312.681 175.644 311.192 175.645V175.645Z" fill="#117DB0"/>
<path d="M55.8692 159.677C54.8211 159.677 53.7832 159.471 52.8148 159.07C51.8464 158.669 50.9665 158.081 50.2254 157.339C49.4844 156.598 48.8966 155.717 48.4958 154.748C48.095 153.779 47.889 152.741 47.8896 151.692V135.723C47.8896 133.605 48.7304 131.574 50.2268 130.077C51.7233 128.58 53.7529 127.738 55.8692 127.738C57.9855 127.738 60.0151 128.58 61.5116 130.077C63.0081 131.574 63.8488 133.605 63.8488 135.723V151.692C63.8494 152.741 63.6434 153.779 63.2426 154.748C62.8418 155.717 62.254 156.598 61.513 157.339C60.7719 158.081 59.892 158.669 58.9236 159.07C57.9552 159.471 56.9173 159.677 55.8692 159.677V159.677Z" fill="#117DB0"/>
<path d="M255.327 135.817C253.785 135.817 252.277 135.37 250.984 134.53C249.69 133.691 248.668 132.494 248.04 131.085C247.412 129.677 247.205 128.116 247.444 126.592C247.684 125.068 248.359 123.647 249.389 122.499L292.404 74.4974C293.821 72.9365 295.799 72.0003 297.904 71.8931C300.009 71.786 302.071 72.5167 303.639 73.9256C305.208 75.3345 306.156 77.3073 306.276 79.413C306.396 81.5188 305.678 83.5865 304.28 85.1647L261.265 133.166C260.517 134.001 259.602 134.668 258.579 135.125C257.555 135.582 256.447 135.818 255.327 135.817V135.817Z" fill="#117DB0"/>
<path d="M343.102 511H39.8793C33.5325 510.993 27.4476 508.467 22.9597 503.976C18.4719 499.486 15.9475 493.397 15.9406 487.046L0.00488192 280.062C-0.0593432 276.872 0.510687 273.7 1.68184 270.732C2.853 267.764 4.60193 265.058 6.82705 262.772C9.05216 260.486 11.7091 258.665 14.6434 257.416C17.5778 256.166 20.7311 255.512 23.9202 255.492H359.061C365.408 255.499 371.493 258.025 375.981 262.516C380.469 267.006 382.993 273.095 383 279.446L367.041 487.381C366.946 493.674 364.382 499.677 359.904 504.095C355.426 508.513 349.391 510.993 343.102 511ZM23.9202 271.461C21.8043 271.463 19.7755 272.305 18.2793 273.802C16.7832 275.299 15.942 277.329 15.9406 279.446L31.8763 486.43C31.8195 487.525 31.9832 488.62 32.3577 489.65C32.7323 490.681 33.31 491.625 34.0566 492.427C34.8032 493.23 35.7034 493.874 36.7037 494.321C37.7039 494.768 38.7839 495.009 39.8793 495.031H343.102C345.218 495.029 347.247 494.188 348.743 492.691C350.239 491.193 351.08 489.163 351.082 487.046C351.082 486.843 351.09 486.641 351.105 486.43L367.064 278.83C366.922 276.812 366.014 274.925 364.526 273.555C363.038 272.185 361.083 271.436 359.061 271.461H23.9202Z" fill="#117DB0"/>
<path d="M191.491 423.17C183.6 423.17 175.886 420.829 169.325 416.442C162.763 412.055 157.65 405.82 154.63 398.525C151.61 391.23 150.82 383.203 152.359 375.459C153.899 367.714 157.699 360.601 163.279 355.017C168.858 349.434 175.967 345.632 183.707 344.091C191.446 342.551 199.468 343.342 206.759 346.363C214.049 349.385 220.28 354.502 224.664 361.067C229.048 367.633 231.388 375.351 231.388 383.247C231.376 393.832 227.168 403.979 219.689 411.463C212.209 418.948 202.068 423.158 191.491 423.17V423.17ZM191.491 359.293C186.756 359.293 182.128 360.698 178.191 363.33C174.254 365.963 171.186 369.704 169.374 374.081C167.562 378.458 167.088 383.274 168.012 387.92C168.936 392.567 171.215 396.835 174.563 400.185C177.911 403.535 182.177 405.817 186.82 406.741C191.464 407.665 196.277 407.191 200.651 405.378C205.026 403.565 208.764 400.495 211.395 396.555C214.025 392.616 215.429 387.985 215.429 383.247C215.422 376.897 212.898 370.808 208.41 366.317C203.922 361.826 197.837 359.3 191.491 359.293V359.293Z" fill="#117DB0"/>
</svg>
