<svg width="390" height="516" viewBox="0 0 390 516" fill="none" xmlns="http://www.w3.org/2000/svg">
<path d="M75.7159 271.461C74.2628 271.464 72.8367 271.069 71.5922 270.318C70.3476 269.568 69.3321 268.491 68.6558 267.204C58.9832 248.824 53.9283 228.364 53.928 207.592C53.928 205.474 54.7687 203.443 56.2651 201.946C57.7616 200.449 59.7912 199.607 61.9075 199.607C64.0238 199.607 66.0535 200.449 67.5499 201.946C69.0464 203.443 69.8871 205.474 69.8871 207.592C69.8874 225.765 74.3055 243.666 82.7603 259.749C83.4008 260.965 83.7169 262.326 83.6779 263.7C83.639 265.074 83.2463 266.415 82.538 267.593C81.8296 268.77 80.8295 269.745 79.6344 270.423C78.4393 271.101 77.0896 271.458 75.7159 271.461V271.461Z" fill="#117DB0"/>
<path d="M131.766 324.091C130.43 324.914 128.886 325.342 127.301 325.329C125.716 325.315 124.151 324.861 122.776 324.015C103.12 311.944 81.794 288.697 69.6447 268.884C68.4061 266.864 72.6983 271.036 73.2004 268.763C73.7024 266.49 71.4621 263.931 73.4106 262.736C75.3592 261.541 81.337 261.809 83.5906 262.392C83.5906 262.736 86.7615 266.743 88 268.763C98.6292 286.098 114.211 298.374 131.403 308.942C132.704 309.741 152.732 315.217 153.5 316.549C154.268 317.882 135.749 315.026 135.785 316.549C135.822 318.073 135.471 319.567 134.767 320.888C134.063 322.209 133.03 323.312 131.766 324.091Z" fill="#117DB0"/>
<path d="M287.486 271.461C286.112 271.458 284.762 271.1 283.567 270.423C282.372 269.745 281.372 268.77 280.664 267.592C279.955 266.415 279.563 265.074 279.524 263.7C279.485 262.326 279.801 260.965 280.441 259.749C288.896 243.665 293.314 225.765 293.315 207.592C293.315 205.474 294.155 203.443 295.652 201.946C297.148 200.449 299.178 199.607 301.294 199.607C303.41 199.607 305.44 200.449 306.937 201.946C308.433 203.443 309.274 205.474 309.274 207.592C309.273 228.364 304.219 248.824 294.546 267.204C293.87 268.491 292.854 269.568 291.609 270.318C290.365 271.069 288.939 271.464 287.486 271.461Z" fill="#117DB0"/>
<path d="M237.867 324.183C236.672 323.504 235.7 322.482 235.044 321.215C234.387 319.948 234.068 318.48 234.118 316.952C234.169 315.425 234.586 313.889 235.33 312.495C236.074 311.1 223.754 317.854 225 316.952C241.465 305.013 274.041 272.693 284.33 254.5C285.529 252.38 282.18 259.376 284.33 258.613C286.481 257.851 288.723 258.008 290.566 259.05C292.408 260.092 293.698 261.933 294.153 264.169C294.608 266.404 294.19 268.851 292.991 270.971C281.23 291.766 265.247 309.759 246.422 323.397C245.105 324.352 243.611 324.931 242.103 325.069C240.595 325.208 239.13 324.902 237.867 324.183Z" fill="#117DB0"/>
<path d="M130.376 323.91C130.144 322.556 130.471 321.129 131.327 319.766C132.182 318.403 133.537 317.15 135.259 316.129C136.982 315.109 139.014 314.354 141.16 313.939C143.306 313.524 145.492 313.462 147.507 313.759C174.16 317.675 202.962 317.117 231.429 312.133C234.746 311.552 238.073 311.823 240.676 312.886C243.28 313.95 244.948 315.718 245.313 317.803C245.678 319.887 244.71 322.117 242.623 324.002C240.535 325.887 240.676 327.853 234.182 327.853C201.643 333.55 156.459 332.339 126 327.853C123.867 327.54 134.268 328.679 132.878 327.659C131.487 326.639 130.622 325.342 130.376 323.91Z" fill="#117DB0"/>
<path d="M61.9075 215.577C60.8595 215.577 59.8216 215.371 58.8532 214.97C57.8848 214.569 57.0049 213.981 56.2638 213.239C55.5227 212.498 54.935 211.617 54.5342 210.648C54.1334 209.679 53.9274 208.641 53.928 207.592V153.797C53.928 151.679 54.7687 149.649 56.2651 148.151C57.7616 146.654 59.7912 145.812 61.9075 145.812C64.0238 145.812 66.0535 146.654 67.5499 148.151C69.0464 149.649 69.8871 151.679 69.8871 153.797V207.592C69.8877 208.641 69.6817 209.679 69.2809 210.648C68.8801 211.617 68.2923 212.498 67.5513 213.239C66.8102 213.981 65.9303 214.569 64.9619 214.97C63.9935 215.371 62.9556 215.577 61.9075 215.577V215.577Z" fill="#117DB0"/>
<path d="M301.294 215.577C300.246 215.578 299.208 215.372 298.24 214.971C297.272 214.569 296.392 213.981 295.651 213.24C294.909 212.498 294.322 211.618 293.921 210.649C293.52 209.68 293.314 208.641 293.315 207.592V135.723C293.315 133.605 294.155 131.574 295.652 130.077C297.148 128.58 299.178 127.738 301.294 127.738C303.411 127.738 305.44 128.58 306.937 130.077C308.433 131.574 309.274 133.605 309.274 135.723V207.592C309.274 208.641 309.068 209.68 308.668 210.649C308.267 211.618 307.679 212.498 306.938 213.24C306.197 213.981 305.317 214.569 304.349 214.971C303.38 215.372 302.342 215.578 301.294 215.577V215.577Z" fill="#117DB0"/>
<path d="M301.294 143.708C300.246 143.708 299.208 143.502 298.24 143.101C297.271 142.7 296.391 142.112 295.65 141.37C294.909 140.629 294.321 139.748 293.921 138.779C293.52 137.81 293.314 136.772 293.314 135.723C293.314 103.962 280.706 73.5024 258.262 51.0443C235.818 28.5861 205.377 15.9692 173.637 15.9692C141.896 15.9692 111.456 28.5861 89.0119 51.0443C66.568 73.5024 53.9591 103.962 53.9591 135.723C53.9591 137.841 53.1184 139.871 51.6219 141.369C50.1255 142.866 48.0959 143.708 45.9796 143.708C43.8632 143.708 41.8336 142.866 40.3372 141.369C38.8407 139.871 38 137.841 38 135.723C38 99.7269 52.2903 65.2053 77.7271 39.7523C103.164 14.2993 137.664 0 173.637 0C209.61 0 244.11 14.2993 269.547 39.7523C294.983 65.2053 309.274 99.7269 309.274 135.723C309.274 136.772 309.068 137.81 308.667 138.779C308.267 139.748 307.679 140.629 306.938 141.37C306.197 142.112 305.317 142.7 304.348 143.101C303.38 143.502 302.342 143.708 301.294 143.708V143.708Z" fill="#117DB0"/>
<path d="M301.302 175.645C300.076 175.647 298.865 175.366 297.765 174.823C296.665 174.281 295.705 173.492 294.959 172.518C259.534 126.248 242.219 132.119 204.277 145.048C153.432 164.432 98.2397 169.457 44.7329 159.574C43.6983 159.411 42.7061 159.044 41.8129 158.497C40.9198 157.949 40.1431 157.231 39.5273 156.383C38.9115 155.535 38.4687 154.574 38.224 153.555C37.9794 152.536 37.9377 151.479 38.1015 150.444C38.2652 149.408 38.6311 148.415 39.1783 147.522C39.7255 146.628 40.4432 145.851 41.2906 145.235C42.1379 144.618 43.0982 144.175 44.1167 143.931C45.1352 143.686 46.1919 143.644 47.2265 143.808C98.1806 153.17 150.725 148.369 199.142 129.928C238.962 116.368 265.254 107.44 307.63 162.802C308.536 163.985 309.093 165.397 309.239 166.879C309.385 168.362 309.113 169.855 308.455 171.191C307.796 172.527 306.778 173.653 305.514 174.44C304.25 175.227 302.791 175.644 301.302 175.645V175.645Z" fill="#117DB0"/>
<path d="M45.9796 159.677C44.9315 159.677 43.8936 159.471 42.9252 159.07C41.9568 158.669 41.0769 158.081 40.3358 157.339C39.5947 156.598 39.007 155.717 38.6062 154.748C38.2054 153.779 37.9994 152.741 38 151.692V135.723C38 133.605 38.8407 131.574 40.3372 130.077C41.8336 128.58 43.8632 127.738 45.9796 127.738C48.0959 127.738 50.1255 128.58 51.6219 130.077C53.1184 131.574 53.9591 133.605 53.9591 135.723V151.692C53.9597 152.741 53.7537 153.779 53.3529 154.748C52.9521 155.717 52.3644 156.598 51.6233 157.339C50.8822 158.081 50.0023 158.669 49.0339 159.07C48.0655 159.471 47.0276 159.677 45.9796 159.677V159.677Z" fill="#117DB0"/>
<path d="M245.437 135.817C243.896 135.817 242.387 135.37 241.094 134.53C239.801 133.691 238.778 132.494 238.15 131.085C237.522 129.677 237.315 128.116 237.555 126.592C237.794 125.068 238.47 123.647 239.499 122.499L282.514 74.4974C283.932 72.9365 285.909 72.0003 288.014 71.8931C290.119 71.786 292.181 72.5167 293.75 73.9256C295.318 75.3345 296.266 77.3073 296.386 79.413C296.506 81.5188 295.788 83.5865 294.39 85.1647L251.375 133.166C250.627 134.001 249.712 134.668 248.689 135.125C247.666 135.582 246.558 135.818 245.437 135.817V135.817Z" fill="#117DB0"/>
<path d="M135.5 319L21.9961 374.639C13.4297 378.838 8 387.547 8 397.087V498.5C8 504.023 12.4772 508.5 18 508.5H372C377.523 508.5 382 504.023 382 498.5V397.992C382 387.988 376.036 378.947 366.838 375.01L236 319" stroke="#117DB0" stroke-width="15"/>
</svg>
