<svg width="383" height="514" viewBox="0 0 383 514" fill="none" xmlns="http://www.w3.org/2000/svg">
<path d="M8 110.721V310.409C8 338.023 30.3858 360.409 58 360.409H125.5M375 120.889V247.428V303.792V310.409C375 338.023 352.614 360.409 325 360.409H280" stroke="#117DB0" stroke-width="15"/>
<path d="M20 70.5703H363C369.904 70.5703 375.5 76.1668 375.5 83.0703V147.823C375.5 190.488 340.913 225.075 298.247 225.075H104C50.7045 225.075 7.5 181.871 7.5 128.575V83.0703C7.5 76.1667 13.0964 70.5703 20 70.5703Z" stroke="#117DB0" stroke-width="15"/>
<path d="M218.5 196V242C218.5 246.142 215.142 249.5 211 249.5H193C188.858 249.5 185.5 246.142 185.5 242V196C185.5 186.887 192.887 179.5 202 179.5C211.113 179.5 218.5 186.887 218.5 196Z" stroke="#117DB0" stroke-width="15"/>
<path d="M108.261 65.709V30.0008C108.261 17.5744 118.334 7.50079 130.761 7.50079L252.239 7.50079C264.665 7.50079 274.739 17.5744 274.739 30.0008V65.709L108.261 65.709Z" stroke="#117DB0" stroke-width="15"/>
<path d="M133.649 339.304V423.104C133.649 423.546 133.674 423.97 133.773 424.4C134.806 428.879 143.581 455.555 205.727 453.788C273.549 451.859 273.549 423.768 273.549 423.768C273.549 423.768 273.549 423.768 273.549 423.768V339.304M133.649 339.304L196.932 369.14C202.484 371.758 208.931 371.68 214.42 368.931L273.549 339.304M133.649 339.304L101.815 323.525C93.9517 319.627 94.5654 308.213 102.802 305.181L198.598 269.915C203.19 268.225 208.243 268.276 212.799 270.06L302.663 305.245C310.634 308.366 311.255 319.406 303.685 323.401L273.549 339.304" stroke="#117DB0" stroke-width="15"/>
<ellipse cx="207.365" cy="321.624" rx="24.0243" ry="24.9834" fill="#117DB0"/>
<path d="M207.365 321.309L151.662 354.198V460.685M151.662 460.685L130.5 510.999M151.662 460.685V510.999M151.662 460.685L173.5 510.999" stroke="#117DB0" stroke-width="15"/>
</svg>
